<svg xmlns="http://www.w3.org/2000/svg" version="1.1" viewBox="-5.0 -16.0 110.0 135.0">
 <path d="m49.867 1.5156c-8.1953 0.015625-16.5 2.1094-24.105 6.5-23.18 13.383-31.133 43.043-17.75 66.227 13.383 23.18 43.047 31.129 66.227 17.746 23.18-13.383 31.125-43.047 17.742-66.227-8.9922-15.574-25.332-24.27-42.117-24.242zm0.007812 1.5039c16.262-0.03125 32.082 8.3984 40.801 23.496 12.973 22.473 5.2812 51.184-17.191 64.16-22.473 12.973-51.184 5.2812-64.16-17.191-12.973-22.473-5.2812-51.188 17.191-64.16 7.375-4.2578 15.418-6.2891 23.359-6.3047zm0.55859 7.9609c-2.1719-0.027344-4.3477 0.12891-6.5156 0.46875-4.6172 0.72656-9.168 2.293-13.43 4.7539-17.039 9.8398-24.09 30.852-16.434 48.98 0.007812 0.015625 0.019531 0.03125 0.03125 0.046875 0.003906 0.011719 0.007812 0.023437 0.015624 0.035156 0.015626 0.023437 0.035157 0.046875 0.054688 0.066406 0.03125 0.042969 0.066406 0.085938 0.10938 0.12109 0.035156 0.03125 0.078125 0.058594 0.12109 0.082031 0.039062 0.023438 0.082031 0.042969 0.125 0.0625 0.054687 0.015625 0.10938 0.027344 0.16406 0.03125 0.039063 0.007813 0.078125 0.007813 0.11719 0.007813 0.0625-0.003907 0.12891-0.015625 0.1875-0.039063 0.023437-0.003906 0.042969-0.007812 0.066406-0.011718 0.015625-0.007813 0.03125-0.015626 0.050781-0.027344 0.011719-0.003906 0.023438-0.007813 0.035156-0.011719l21.379-12.34c0.007812-0.003906 0.011719-0.007812 0.019531-0.011719 0.023438-0.011718 0.042969-0.027343 0.0625-0.039062l44.305-25.582c0.24219-0.13672 0.38672-0.39844 0.37891-0.67578 0-0.039063-0.003906-0.078126-0.011719-0.11719v-0.007812c-0.015625-0.074219-0.039063-0.14844-0.078125-0.21484 0-0.003906-0.003906-0.003906-0.003906-0.007813-0.003906-0.003906-0.003906-0.007812-0.007813-0.011719 0 0-0.003906-0.003906-0.003906-0.007812-0.015625-0.023438-0.03125-0.050781-0.050781-0.074219-7.5117-9.9336-18.969-15.336-30.684-15.477zm-0.43359 1.5078c11.137 0.007813 22.066 4.9727 29.387 14.211l-20.914 12.074-1.5-2.5977c2.1016-2.793 2.6016-6.6133 0.74219-9.8359l-1.0391-1.793-1.5586-2.707-2.7188-4.707c-0.48047-0.83594-1.2578-1.3945-2.125-1.6289-0.86719-0.23438-1.8242-0.14062-2.6562 0.33984-1.0508 0.60547-1.4648 1.6875-1.5352 2.8242-1.0156-0.50391-2.1562-0.69141-3.207-0.082031-1.0508 0.60547-1.4688 1.6875-1.5391 2.8242-1.0156-0.50391-2.1562-0.68359-3.207-0.078125-1.668 0.96094-2.2383 3.1133-1.2734 4.7812l4.2773 7.4141 1.0391 1.8008c1.8594 3.2188 5.4102 4.6836 8.8789 4.2656l1.5039 2.6016-11.508 6.6445-1.2188-2.1094c2.1016-2.793 2.6055-6.6055 0.74219-9.8281l-2.8516-4.9414c-1.2422-2.1523-3.2383-3.5977-5.457-4.1953-2.2227-0.59766-4.668-0.34375-6.8164 0.89453-4.2969 2.4805-5.7617 7.9766-3.2773 12.285l2.8516 4.9375c1.8594 3.2188 5.4102 4.6836 8.8789 4.2656l1.2227 2.1172-19.992 11.539c-6.8281-17.25-0.019531-36.961 16.121-46.281 5.8906-3.4023 12.359-5.0352 18.758-5.0312zm-0.68359 4.4023c0.70312-0.019531 1.3867 0.33984 1.7695 1.0039l2.7148 4.7031 1.5625 2.707 1.0391 1.8008c1.6523 2.8633 1.2148 6.3203-0.82812 8.6562l0.007812-0.003907c-0.21484 0.24219-0.25 0.59375-0.089843 0.875l1.6719 2.8945-3.3047 1.9062-1.668-2.8945c-0.16016-0.28125-0.48438-0.42578-0.80469-0.36328-3.0469 0.60156-6.2539-0.74609-7.9062-3.6094l-1.0391-1.8008-4.2773-7.4102c-0.55859-0.96875-0.23828-2.1641 0.72266-2.7188 0.96094-0.55469 2.1523-0.23438 2.7109 0.73047l4.6172 8.0078v0.003906c0.21094 0.35938 0.67578 0.48047 1.0352 0.27344 0.17578-0.10156 0.30078-0.26562 0.35547-0.46094 0.050781-0.19531 0.023437-0.40234-0.074219-0.57422l-4.625-8.0078c-0.55859-0.96875-0.23828-2.1562 0.72266-2.7109 0.96094-0.55469 2.1523-0.23438 2.7109 0.73047 0.003906 0.011719 0.011718 0.019532 0.019531 0.027344l4.6055 7.9805c0.20703 0.36328 0.67188 0.48438 1.0312 0.27734 0.17578-0.10156 0.30469-0.26562 0.35547-0.46094 0.054688-0.19531 0.027344-0.40234-0.074218-0.57812l-4.625-8.0078c-0.55859-0.96484-0.23438-2.1562 0.72656-2.7109 0.30078-0.17188 0.625-0.26172 0.94531-0.26953zm-19.23 12.066c2.5195 0.054688 4.9453 1.3945 6.3086 3.7578l2.8516 4.9375c1.6523 2.8633 1.2148 6.3242-0.82812 8.6602h0.007812c-0.21094 0.24219-0.24609 0.59766-0.082031 0.87891l1.3867 2.4023-3.3047 1.9102-1.3867-2.4023v-0.003906c-0.16406-0.28125-0.48828-0.42969-0.80469-0.36328-3.0469 0.60156-6.2539-0.75-7.9062-3.6133l-2.8516-4.9414c-2.082-3.6016-0.875-8.1406 2.7188-10.215 1.2344-0.71094 2.582-1.0352 3.9023-1.0078zm55.152 5.3984h0.007813c-0.011719 0.003906-0.027344 0.003906-0.039063 0.007812-0.058593 0.003907-0.11328 0.015625-0.17188 0.035157-0.023437 0.003906-0.050781 0.007812-0.078125 0.015624-0.007812 0.007813-0.019531 0.015626-0.03125 0.019532-0.015625 0.007812-0.035156 0.011718-0.050781 0.019531l-22.32 12.887h-0.007813c0 0.003906-0.003906 0.003906-0.003906 0.003906l-43.441 25.082c-0.015624 0.011719-0.03125 0.023438-0.046874 0.039063-0.011719 0.003906-0.023438 0.011718-0.03125 0.015625-0.015626 0.015625-0.03125 0.03125-0.046876 0.050781-0.050781 0.042969-0.09375 0.09375-0.12891 0.14844-0.015625 0.023437-0.027344 0.050781-0.039062 0.074218-0.03125 0.0625-0.050782 0.12891-0.066406 0.19531-0.003907 0.03125-0.007813 0.0625-0.007813 0.09375-0.003906 0.066406 0 0.13281 0.011719 0.19531 0.007812 0.035157 0.019531 0.066407 0.03125 0.097657 0.011718 0.042968 0.023437 0.082031 0.042968 0.12109 0.011719 0.019531 0.027344 0.035157 0.039063 0.046875 0.007813 0.011719 0.011719 0.023438 0.015625 0.03125 11.871 15.695 33.59 20.098 50.637 10.258 17.031-9.832 24.082-30.82 16.449-48.941v0.003907c-0.015626-0.042969-0.035157-0.082031-0.054688-0.125-0.023438-0.03125-0.050781-0.058594-0.082031-0.089844-0.023438-0.03125-0.050781-0.0625-0.082031-0.089844-0.039063-0.035156-0.082032-0.0625-0.12891-0.085937-0.039062-0.027344-0.082031-0.046875-0.125-0.0625-0.015625-0.007813-0.03125-0.015625-0.046875-0.023438-0.035156-0.003906-0.074218-0.007812-0.10938-0.007812-0.027343-0.007813-0.058593-0.011719-0.089843-0.015625zm-0.37109 1.8477c6.832 17.25 0.019531 36.961-16.121 46.281-16.145 9.3203-36.621 5.3633-48.145-9.1797l19.988-11.539 11.945 20.688c0.94141 1.6328 3.043 2.1992 4.6758 1.2578 1.6328-0.94141 2.1953-3.0469 1.25-4.6797l-11.945-20.684 11.508-6.6445 11.945 20.688c0.94141 1.6328 3.0469 2.1992 4.6797 1.2578 1.6328-0.94141 2.1914-3.0469 1.2461-4.6797l-11.945-20.688zm-22.223 12.828 11.938 20.688c0.53906 0.92969 0.23047 2.0781-0.69531 2.6094-0.92578 0.53516-2.0664 0.22656-2.6055-0.70703l-11.945-20.684zm-17.438 10.066 11.941 20.688c0.53906 0.92969 0.23437 2.0781-0.69141 2.6094-0.92578 0.53516-2.0742 0.22656-2.6094-0.70312l-11.941-20.688z"/>
</svg>